%TF.GenerationSoftware,KiCad,Pcbnew,8.0.0*%
%TF.CreationDate,2024-03-03T11:21:54-05:00*%
%TF.ProjectId,ISA8255,49534138-3235-4352-9e6b-696361645f70,rev?*%
%TF.SameCoordinates,Original*%
%TF.FileFunction,Drillmap*%
%TF.FilePolarity,Positive*%
%FSLAX45Y45*%
G04 Gerber Fmt 4.5, Leading zero omitted, Abs format (unit mm)*
G04 Created by KiCad (PCBNEW 8.0.0) date 2024-03-03 11:21:54*
%MOMM*%
%LPD*%
G01*
G04 APERTURE LIST*
%ADD10C,0.100000*%
%ADD11C,0.200000*%
G04 APERTURE END LIST*
D10*
X19450000Y-14224000D02*
X19450000Y-15113000D01*
X21315000Y-5113000D02*
X5188000Y-5113000D01*
X19450000Y-15113000D02*
X21315000Y-15113000D01*
X21315000Y-15113000D02*
X21315000Y-5113000D01*
X5188000Y-14224000D02*
X5188000Y-5113000D01*
X5588000Y-14224000D02*
X5188000Y-14224000D01*
X5588000Y-14986000D02*
X5588000Y-14224000D01*
X5715000Y-15113000D02*
X5588000Y-14986000D01*
X10287000Y-15113000D02*
X5715000Y-15113000D01*
X10287000Y-15113000D02*
X10414000Y-14986000D01*
X10414000Y-14351000D02*
X10414000Y-14986000D01*
X10922000Y-14351000D02*
X10414000Y-14351000D01*
X10922000Y-14986000D02*
X10922000Y-14351000D01*
X11049000Y-15113000D02*
X10922000Y-14986000D01*
X18923000Y-15113000D02*
X11049000Y-15113000D01*
X18923000Y-15113000D02*
X19050000Y-14986000D01*
X19050000Y-14224000D02*
X19050000Y-14986000D01*
X19450000Y-14224000D02*
X19050000Y-14224000D01*
D11*
X5443777Y-15429484D02*
X5443777Y-15229484D01*
X5443777Y-15229484D02*
X5491396Y-15229484D01*
X5491396Y-15229484D02*
X5519967Y-15239008D01*
X5519967Y-15239008D02*
X5539015Y-15258055D01*
X5539015Y-15258055D02*
X5548539Y-15277103D01*
X5548539Y-15277103D02*
X5558063Y-15315198D01*
X5558063Y-15315198D02*
X5558063Y-15343769D01*
X5558063Y-15343769D02*
X5548539Y-15381865D01*
X5548539Y-15381865D02*
X5539015Y-15400912D01*
X5539015Y-15400912D02*
X5519967Y-15419960D01*
X5519967Y-15419960D02*
X5491396Y-15429484D01*
X5491396Y-15429484D02*
X5443777Y-15429484D01*
X5643777Y-15429484D02*
X5643777Y-15296150D01*
X5643777Y-15334246D02*
X5653301Y-15315198D01*
X5653301Y-15315198D02*
X5662824Y-15305674D01*
X5662824Y-15305674D02*
X5681872Y-15296150D01*
X5681872Y-15296150D02*
X5700920Y-15296150D01*
X5767586Y-15429484D02*
X5767586Y-15296150D01*
X5767586Y-15229484D02*
X5758062Y-15239008D01*
X5758062Y-15239008D02*
X5767586Y-15248531D01*
X5767586Y-15248531D02*
X5777110Y-15239008D01*
X5777110Y-15239008D02*
X5767586Y-15229484D01*
X5767586Y-15229484D02*
X5767586Y-15248531D01*
X5891396Y-15429484D02*
X5872348Y-15419960D01*
X5872348Y-15419960D02*
X5862824Y-15400912D01*
X5862824Y-15400912D02*
X5862824Y-15229484D01*
X5996158Y-15429484D02*
X5977110Y-15419960D01*
X5977110Y-15419960D02*
X5967586Y-15400912D01*
X5967586Y-15400912D02*
X5967586Y-15229484D01*
X6224729Y-15429484D02*
X6224729Y-15229484D01*
X6224729Y-15229484D02*
X6291396Y-15372341D01*
X6291396Y-15372341D02*
X6358062Y-15229484D01*
X6358062Y-15229484D02*
X6358062Y-15429484D01*
X6539015Y-15429484D02*
X6539015Y-15324722D01*
X6539015Y-15324722D02*
X6529491Y-15305674D01*
X6529491Y-15305674D02*
X6510443Y-15296150D01*
X6510443Y-15296150D02*
X6472348Y-15296150D01*
X6472348Y-15296150D02*
X6453301Y-15305674D01*
X6539015Y-15419960D02*
X6519967Y-15429484D01*
X6519967Y-15429484D02*
X6472348Y-15429484D01*
X6472348Y-15429484D02*
X6453301Y-15419960D01*
X6453301Y-15419960D02*
X6443777Y-15400912D01*
X6443777Y-15400912D02*
X6443777Y-15381865D01*
X6443777Y-15381865D02*
X6453301Y-15362817D01*
X6453301Y-15362817D02*
X6472348Y-15353293D01*
X6472348Y-15353293D02*
X6519967Y-15353293D01*
X6519967Y-15353293D02*
X6539015Y-15343769D01*
X6634253Y-15296150D02*
X6634253Y-15496150D01*
X6634253Y-15305674D02*
X6653301Y-15296150D01*
X6653301Y-15296150D02*
X6691396Y-15296150D01*
X6691396Y-15296150D02*
X6710443Y-15305674D01*
X6710443Y-15305674D02*
X6719967Y-15315198D01*
X6719967Y-15315198D02*
X6729491Y-15334246D01*
X6729491Y-15334246D02*
X6729491Y-15391388D01*
X6729491Y-15391388D02*
X6719967Y-15410436D01*
X6719967Y-15410436D02*
X6710443Y-15419960D01*
X6710443Y-15419960D02*
X6691396Y-15429484D01*
X6691396Y-15429484D02*
X6653301Y-15429484D01*
X6653301Y-15429484D02*
X6634253Y-15419960D01*
X6815205Y-15410436D02*
X6824729Y-15419960D01*
X6824729Y-15419960D02*
X6815205Y-15429484D01*
X6815205Y-15429484D02*
X6805682Y-15419960D01*
X6805682Y-15419960D02*
X6815205Y-15410436D01*
X6815205Y-15410436D02*
X6815205Y-15429484D01*
X6815205Y-15305674D02*
X6824729Y-15315198D01*
X6824729Y-15315198D02*
X6815205Y-15324722D01*
X6815205Y-15324722D02*
X6805682Y-15315198D01*
X6805682Y-15315198D02*
X6815205Y-15305674D01*
X6815205Y-15305674D02*
X6815205Y-15324722D01*
M02*
