M48
; DRILL file {KiCad 8.0.0} date 2024-03-03T11:21:52-0500
; FORMAT={-:-/ absolute / inch / decimal}
; #@! TF.CreationDate,2024-03-03T11:21:52-05:00
; #@! TF.GenerationSoftware,Kicad,Pcbnew,8.0.0
; #@! TF.FileFunction,Plated,1,2,PTH
FMAT,2
INCH
; #@! TA.AperFunction,Plated,PTH,ViaDrill
T1C0.0157
; #@! TA.AperFunction,Plated,PTH,ViaDrill
T2C0.0197
; #@! TA.AperFunction,Plated,PTH,ComponentDrill
T3C0.0315
; #@! TA.AperFunction,Plated,PTH,ComponentDrill
T4C0.0354
; #@! TA.AperFunction,Plated,PTH,ComponentDrill
T5C0.0394
; #@! TA.AperFunction,Plated,PTH,ComponentDrill
T6C0.1299
%
G90
G05
T1
X2.5427Y-3.0076
X2.56Y-3.0776
X2.58Y-3.02
X2.62Y-3.01
X2.63Y-4.43
X2.65Y-2.77
X2.77Y-4.45
X2.85Y-4.48
X2.86Y-4.4224
X2.86Y-4.9
X2.93Y-4.85
X3.0325Y-2.7577
X3.0376Y-3.1
X3.0809Y-4.79
X3.1059Y-3.1276
X3.11Y-3.1773
X3.11Y-4.85
X3.12Y-4.45
X3.18Y-5.03
X3.1876Y-4.72
X3.24Y-4.79
X3.29Y-5.51
X3.31Y-3.65
X3.3545Y-3.08
X3.36Y-3.36
X3.45Y-3.05
X3.45Y-5.04
X3.46Y-3.39
X3.53Y-3.62
X3.56Y-3.44
X3.5876Y-3.65
X3.6Y-2.95
X3.66Y-3.45
X3.76Y-3.47
X3.78Y-2.46
X3.81Y-2.58
X3.86Y-3.5
X3.98Y-3.53
X4.02Y-2.69
X4.02Y-3.58
X4.1Y-4.23
X4.15Y-2.77
X4.17Y-4.2
X4.27Y-4.17
X4.52Y-4.0
X4.57Y-4.0
X4.7Y-2.65
X4.9767Y-3.31
X4.99Y-3.2476
X4.99Y-5.17
X5.0224Y-3.1428
X5.05Y-3.11
X5.07Y-4.99
X5.11Y-5.02
X5.14Y-5.0578
X5.16Y-3.11
X5.16Y-5.16
X5.1815Y-5.1993
X5.1876Y-3.14
X5.22Y-3.26
X5.25Y-3.31
X5.26Y-5.16
X5.27Y-5.22
X5.4Y-5.2524
X5.49Y-5.28
X5.59Y-5.32
X5.67Y-2.93
X5.76Y-3.12
X5.86Y-3.08
X6.02Y-2.5
X6.05Y-2.63
X6.1Y-5.61
X6.1537Y-3.8161
X6.17Y-2.39
X6.19Y-5.62
X6.2Y-4.03
X6.26Y-5.27
X6.3Y-2.3624
X6.36Y-3.38
X6.46Y-3.41
X6.47Y-2.6
X6.56Y-3.42
X6.66Y-3.43
X6.76Y-3.45
X6.86Y-3.49
X6.93Y-2.9
X6.96Y-3.5
X6.99Y-2.88
X7.05Y-2.69
X7.08Y-5.28
X7.16Y-2.74
X7.26Y-3.82
X7.31Y-5.55
X7.84Y-3.46
T2
X2.17Y-2.16
X2.17Y-2.27
X2.17Y-4.68
X2.17Y-5.03
X2.22Y-3.87
X2.22Y-4.08
X2.22Y-4.28
X2.22Y-4.47
X2.33Y-3.87
X2.33Y-4.08
X2.33Y-4.28
X2.33Y-4.47
X2.41Y-5.09
X2.46Y-3.87
X2.46Y-4.08
X2.46Y-4.28
X2.46Y-4.47
X2.49Y-3.17
X2.5Y-2.16
X2.5Y-3.47
X2.53Y-4.72
X2.56Y-3.23
X2.56Y-3.52
X2.61Y-2.16
X2.71Y-4.07
X2.73Y-4.91
X2.74Y-2.16
X2.75Y-3.41
X2.76Y-2.85
X2.76Y-3.17
X2.78Y-4.83
X2.8Y-3.5
X2.81Y-4.07
X2.81Y-5.33
X2.85Y-3.41
X2.86Y-2.84
X2.86Y-3.16
X2.91Y-4.07
X2.92Y-5.33
X2.96Y-2.86
X2.96Y-3.18
X3.01Y-4.76
X3.03Y-4.04
X3.03Y-5.33
X3.05Y-4.99
X3.33Y-2.14
X3.39Y-3.51
X3.39Y-5.33
X3.41Y-4.84
X3.44Y-2.14
X3.46Y-2.67
X3.55Y-2.67
X3.57Y-2.14
X3.62Y-4.84
X3.64Y-2.67
X3.71Y-3.0
X3.74Y-2.67
X3.77Y-4.84
X3.91Y-2.65
X3.91Y-3.56
X3.93Y-2.74
X3.94Y-2.14
X3.94Y-4.84
X4.04Y-2.14
X4.1Y-2.48
X4.1Y-2.59
X4.1Y-4.84
X4.11Y-3.62
X4.18Y-2.48
X4.2Y-4.66
X4.24Y-4.84
X4.32Y-4.66
X4.3247Y-5.5513
X4.39Y-2.14
X4.4Y-4.84
X4.43Y-5.5513
X4.45Y-4.66
X4.5Y-2.14
X4.63Y-2.14
X4.64Y-5.32
X4.73Y-5.32
X4.7442Y-3.8842
X4.76Y-4.53
X4.76Y-4.64
X4.82Y-5.32
X4.83Y-3.8
X4.86Y-4.53
X4.86Y-4.64
X4.9Y-3.74
X4.94Y-3.18
X5.09Y-4.48
X5.09Y-4.56
X5.09Y-4.64
X5.27Y-2.16
X5.38Y-2.16
X5.39Y-3.64
X5.44Y-3.7
X5.47Y-3.89
X5.51Y-2.16
X5.51Y-2.74
X5.51Y-3.1
X5.51Y-3.66
X5.56Y-2.69
X5.62Y-5.26
X5.65Y-2.68
X5.69Y-5.34
X5.71Y-2.55
X5.72Y-5.26
X5.82Y-2.55
X5.94Y-2.15
X5.94Y-5.37
X6.05Y-2.15
X6.08Y-3.64
X6.19Y-3.58
X6.27Y-3.14
X6.31Y-3.64
X6.31Y-4.16
X6.31Y-5.1
X6.32Y-5.36
X6.34Y-3.14
X6.38Y-2.15
X6.41Y-3.14
X6.41Y-3.58
X6.41Y-4.09
X6.41Y-5.08
X6.47Y-5.54
X6.49Y-2.15
X6.5Y-5.6
X6.51Y-3.64
X6.51Y-4.34
X6.51Y-4.66
X6.51Y-5.07
X6.55Y-2.83
X6.6Y-2.88
X6.61Y-3.58
X6.61Y-4.36
X6.61Y-4.66
X6.61Y-5.08
X6.62Y-2.15
X6.66Y-2.94
X6.71Y-3.64
X6.71Y-4.36
X6.71Y-5.09
X6.81Y-3.58
X6.81Y-4.41
X6.81Y-4.66
X6.81Y-5.09
X6.91Y-3.41
X6.91Y-3.64
X6.91Y-4.41
X6.91Y-4.61
X6.91Y-5.06
X7.04Y-4.41
X7.05Y-4.74
X7.05Y-5.03
X7.06Y-4.08
X7.1Y-4.99
X7.11Y-3.46
X7.16Y-4.08
X7.21Y-3.52
X7.33Y-3.46
X7.36Y-2.71
X7.36Y-3.97
X7.36Y-4.08
X7.37Y-5.55
X7.41Y-2.15
X7.43Y-5.59
X7.44Y-2.71
X7.46Y-3.46
X7.46Y-3.97
X7.48Y-4.64
X7.48Y-4.75
X7.48Y-4.86
X7.54Y-2.15
X7.66Y-3.31
X7.66Y-3.41
X7.66Y-3.73
X7.67Y-2.15
X7.67Y-2.64
X7.7Y-3.95
X7.72Y-5.53
X7.73Y-2.71
X7.75Y-3.65
X7.76Y-3.29
X7.78Y-3.88
X7.8Y-5.53
X7.81Y-4.89
X7.87Y-5.53
X7.9Y-4.89
X7.94Y-4.18
X7.94Y-4.29
X7.94Y-4.4
T3
X2.34Y-4.8092
X2.34Y-4.9077
X2.71Y-3.29
X2.71Y-3.89
X2.71Y-4.53
X2.71Y-5.13
X2.7112Y-2.97
X2.7112Y-4.33
X2.81Y-3.29
X2.81Y-3.89
X2.81Y-4.53
X2.81Y-5.13
X2.8112Y-2.97
X2.8112Y-4.33
X2.91Y-3.29
X2.91Y-3.89
X2.91Y-4.53
X2.91Y-5.13
X2.9112Y-2.97
X2.9112Y-4.33
X3.01Y-3.29
X3.01Y-3.89
X3.01Y-4.53
X3.01Y-5.13
X3.0112Y-2.97
X3.0112Y-4.33
X3.11Y-3.29
X3.11Y-3.89
X3.11Y-4.53
X3.11Y-5.13
X3.1112Y-2.97
X3.1112Y-4.33
X3.21Y-3.29
X3.21Y-3.89
X3.21Y-4.53
X3.21Y-5.13
X3.2112Y-2.97
X3.2112Y-4.33
X3.31Y-3.29
X3.31Y-3.89
X3.31Y-4.53
X3.31Y-5.13
X3.3112Y-2.97
X3.3112Y-4.33
X3.41Y-3.29
X3.41Y-3.89
X3.41Y-4.53
X3.41Y-5.13
X3.4112Y-2.97
X3.4112Y-4.33
X3.51Y-3.29
X3.51Y-3.89
X3.51Y-4.53
X3.51Y-5.13
X3.5112Y-2.97
X3.5112Y-4.33
X3.61Y-3.29
X3.61Y-3.89
X3.61Y-4.53
X3.61Y-5.13
X3.61Y-5.34
X3.6112Y-4.1
X3.71Y-3.29
X3.71Y-3.89
X3.71Y-4.53
X3.71Y-5.13
X3.71Y-5.34
X3.7112Y-4.1
X3.81Y-3.29
X3.81Y-3.89
X3.81Y-4.53
X3.81Y-5.13
X3.81Y-5.34
X3.8112Y-4.1
X3.9016Y-4.41
X3.9031Y-4.29
X3.91Y-3.29
X3.91Y-3.89
X3.91Y-4.53
X3.91Y-5.13
X3.91Y-5.34
X3.9112Y-4.1
X3.9316Y-2.9916
X3.9316Y-3.1884
X4.0Y-2.3816
X4.0Y-2.48
X4.01Y-3.29
X4.01Y-3.89
X4.01Y-4.53
X4.01Y-5.13
X4.01Y-5.34
X4.0112Y-4.1
X4.07Y-2.9931
X4.07Y-3.19
X4.0984Y-4.41
X4.1Y-4.29
X4.11Y-3.29
X4.11Y-3.89
X4.11Y-4.53
X4.11Y-5.13
X4.11Y-5.34
X4.1112Y-4.1
X4.21Y-3.29
X4.21Y-3.89
X4.21Y-4.53
X4.21Y-5.13
X4.21Y-5.34
X4.2112Y-2.99
X4.2112Y-4.1
X4.2112Y-4.33
X4.31Y-3.29
X4.31Y-3.89
X4.31Y-4.53
X4.31Y-5.13
X4.31Y-5.34
X4.3112Y-2.99
X4.3112Y-4.1
X4.3112Y-4.33
X4.41Y-3.29
X4.41Y-3.89
X4.41Y-4.53
X4.41Y-5.13
X4.41Y-5.34
X4.4112Y-2.99
X4.4112Y-4.1
X4.4112Y-4.33
X4.51Y-3.29
X4.51Y-3.89
X4.51Y-4.53
X4.51Y-5.13
X4.5112Y-2.99
X4.5112Y-4.33
X4.61Y-3.29
X4.61Y-3.89
X4.61Y-4.53
X4.61Y-5.13
X4.6112Y-2.99
X4.6112Y-4.33
X4.7112Y-2.99
X4.7112Y-4.33
X4.8112Y-2.99
X4.8112Y-4.33
X4.9112Y-2.99
X4.9112Y-4.33
X5.0112Y-2.99
X5.0112Y-4.33
X5.0316Y-5.33
X5.2284Y-5.33
X5.39Y-5.16
X5.39Y-5.46
X5.49Y-5.16
X5.49Y-5.46
X5.59Y-5.16
X5.59Y-5.46
X5.61Y-3.29
X5.61Y-3.89
X5.6112Y-2.99
X5.69Y-5.16
X5.69Y-5.46
X5.71Y-3.29
X5.71Y-3.89
X5.7112Y-2.99
X5.79Y-5.16
X5.79Y-5.46
X5.81Y-3.29
X5.81Y-3.89
X5.8112Y-2.99
X5.89Y-5.16
X5.89Y-5.46
X5.91Y-3.29
X5.91Y-3.89
X5.9112Y-2.99
X5.93Y-2.39
X5.93Y-2.4884
X5.99Y-5.16
X5.99Y-5.46
X6.01Y-3.29
X6.01Y-3.89
X6.0112Y-2.99
X6.09Y-5.16
X6.09Y-5.46
X6.11Y-3.29
X6.11Y-3.89
X6.1112Y-2.99
X6.21Y-3.29
X6.21Y-3.89
X6.2112Y-2.99
X6.31Y-3.29
X6.31Y-3.89
X6.3112Y-2.99
X6.41Y-3.29
X6.41Y-3.89
X6.4112Y-2.99
X6.51Y-3.29
X6.51Y-3.89
X6.5112Y-4.2
X6.61Y-3.29
X6.61Y-3.89
X6.6112Y-4.2
X6.71Y-3.29
X6.71Y-3.89
X6.7112Y-4.2
X6.81Y-3.29
X6.81Y-3.89
X6.8112Y-4.2
X6.8516Y-2.9916
X6.8516Y-3.1884
X6.91Y-3.29
X6.91Y-3.89
X6.9112Y-4.2
X6.97Y-2.9916
X6.97Y-3.1884
X7.01Y-3.29
X7.01Y-3.89
X7.0112Y-4.2
X7.11Y-2.99
X7.11Y-3.29
X7.11Y-3.89
X7.1112Y-4.2
X7.21Y-2.99
X7.21Y-3.29
X7.21Y-3.89
X7.2112Y-4.2
X7.31Y-2.99
X7.31Y-3.29
X7.31Y-3.89
X7.3112Y-4.2
X7.41Y-2.99
X7.41Y-3.29
X7.41Y-3.89
X7.51Y-2.99
X7.51Y-3.29
X7.51Y-3.89
X7.61Y-2.99
X7.66Y-4.1516
X7.66Y-4.25
X7.71Y-2.99
X7.81Y-2.99
X7.89Y-2.3816
X7.89Y-2.48
X7.91Y-2.99
X8.16Y-2.45
X8.16Y-2.75
T4
X7.8498Y-2.15
X7.9498Y-2.15
T5
X2.44Y-2.44
X2.44Y-2.54
X2.54Y-2.44
X2.54Y-2.54
X2.64Y-2.44
X2.64Y-2.54
X2.74Y-2.44
X2.74Y-2.54
X2.84Y-2.44
X2.84Y-2.54
X2.94Y-2.44
X2.94Y-2.54
X3.04Y-2.44
X3.04Y-2.54
X3.14Y-2.44
X3.14Y-2.54
X3.24Y-2.44
X3.24Y-2.54
X3.34Y-2.44
X3.34Y-2.54
X3.44Y-2.44
X3.44Y-2.54
X3.54Y-2.44
X3.54Y-2.54
X3.64Y-2.44
X3.64Y-2.54
X4.36Y-2.44
X4.36Y-2.54
X4.46Y-2.44
X4.46Y-2.54
X4.56Y-2.44
X4.56Y-2.54
X4.66Y-2.44
X4.66Y-2.54
X4.76Y-2.44
X4.76Y-2.54
X4.86Y-2.44
X4.86Y-2.54
X4.96Y-2.44
X4.96Y-2.54
X5.06Y-2.44
X5.06Y-2.54
X5.16Y-2.44
X5.16Y-2.54
X5.26Y-2.44
X5.26Y-2.54
X5.36Y-2.44
X5.36Y-2.54
X5.4306Y-4.2
X5.4306Y-4.3
X5.4306Y-4.5302
X5.4306Y-4.6302
X5.4306Y-4.85
X5.4306Y-4.95
X5.46Y-2.44
X5.46Y-2.54
X5.5306Y-4.2
X5.5306Y-4.3
X5.5306Y-4.5302
X5.5306Y-4.6302
X5.5306Y-4.85
X5.5306Y-4.95
X5.56Y-2.44
X5.56Y-2.54
X5.6306Y-4.2
X5.6306Y-4.3
X5.6306Y-4.5302
X5.6306Y-4.6302
X5.6306Y-4.85
X5.6306Y-4.95
X5.7306Y-4.2
X5.7306Y-4.3
X5.7306Y-4.5302
X5.7306Y-4.6302
X5.7306Y-4.85
X5.7306Y-4.95
X5.8306Y-4.2
X5.8306Y-4.3
X5.8306Y-4.5302
X5.8306Y-4.6302
X5.8306Y-4.85
X5.8306Y-4.95
X5.9306Y-4.2
X5.9306Y-4.3
X5.9306Y-4.5302
X5.9306Y-4.6302
X5.9306Y-4.85
X5.9306Y-4.95
X6.0306Y-4.2
X6.0306Y-4.3
X6.0306Y-4.5302
X6.0306Y-4.6302
X6.0306Y-4.85
X6.0306Y-4.95
X6.1306Y-4.2
X6.1306Y-4.3
X6.1306Y-4.5302
X6.1306Y-4.6302
X6.1306Y-4.85
X6.1306Y-4.95
X6.33Y-2.44
X6.33Y-2.54
X6.43Y-2.44
X6.43Y-2.54
X6.53Y-2.44
X6.53Y-2.54
X6.63Y-2.44
X6.63Y-2.54
X6.73Y-2.44
X6.73Y-2.54
X6.83Y-2.44
X6.83Y-2.54
X6.93Y-2.44
X6.93Y-2.54
X7.03Y-2.44
X7.03Y-2.54
X7.13Y-2.44
X7.13Y-2.54
X7.23Y-2.44
X7.23Y-2.54
X7.33Y-2.44
X7.33Y-2.54
X7.43Y-2.44
X7.43Y-2.54
X7.53Y-2.44
X7.53Y-2.54
T6
X8.203Y-3.2572
X8.203Y-5.4824
M30
